<svg xmlns="http://www.w3.org/2000/svg" xmlns:xlink="http://www.w3.org/1999/xlink" width="1920" zoomAndPan="magnify" viewBox="0 0 1440 359.999987" height="480" preserveAspectRatio="xMidYMid meet" version="1.0"><defs><g/></defs><rect x="-144" width="1728" fill="#ffffff" y="-35.999999" height="431.999984" fill-opacity="1"/><rect x="-144" width="1728" fill="#fef4ea" y="-35.999999" height="431.999984" fill-opacity="1"/><g fill="#604cc3" fill-opacity="1"><g transform="translate(178.150897, 202.913423)"><g><path d="M 50.40625 -2.015625 L 50.40625 0 L 35.953125 0 C 35.191406 -2.226562 34.78125 -4.238281 34.71875 -6.03125 C 32.289062 -3.414062 29.769531 -1.53125 27.15625 -0.375 C 24.539062 0.769531 21.578125 1.34375 18.265625 1.34375 C 13.609375 1.34375 9.863281 0.00390625 7.03125 -2.671875 C 4.195312 -5.347656 2.78125 -8.953125 2.78125 -13.484375 C 2.78125 -17.753906 3.941406 -21.304688 6.265625 -24.140625 C 8.585938 -26.984375 12.75 -28.914062 18.75 -29.9375 L 28.3125 -31.375 C 30.726562 -31.75 32.332031 -32.222656 33.125 -32.796875 C 33.925781 -33.378906 34.328125 -34.335938 34.328125 -35.671875 C 34.328125 -37.585938 33.640625 -39.039062 32.265625 -40.03125 C 30.898438 -41.019531 28.65625 -41.515625 25.53125 -41.515625 C 20.5 -41.515625 17.757812 -39.15625 17.3125 -34.4375 L 4.40625 -34.4375 C 4.914062 -40.238281 6.875 -44.648438 10.28125 -47.671875 C 13.6875 -50.703125 19.1875 -52.21875 26.78125 -52.21875 C 33.28125 -52.21875 38.347656 -50.941406 41.984375 -48.390625 C 45.617188 -45.835938 47.4375 -42.332031 47.4375 -37.875 L 47.4375 -9.46875 C 47.4375 -7.113281 47.675781 -5.375 48.15625 -4.25 C 48.632812 -3.132812 49.382812 -2.390625 50.40625 -2.015625 Z M 34.328125 -18.453125 L 34.328125 -24.765625 C 33.179688 -24.066406 31.9375 -23.507812 30.59375 -23.09375 C 29.257812 -22.675781 27.316406 -22.28125 24.765625 -21.90625 C 21.898438 -21.519531 19.75 -20.738281 18.3125 -19.5625 C 16.875 -18.382812 16.15625 -16.644531 16.15625 -14.34375 C 16.15625 -12.5 16.726562 -11.015625 17.875 -9.890625 C 19.03125 -8.773438 20.53125 -8.21875 22.375 -8.21875 C 24.351562 -8.21875 26.265625 -8.648438 28.109375 -9.515625 C 29.960938 -10.378906 31.460938 -11.59375 32.609375 -13.15625 C 33.753906 -14.71875 34.328125 -16.484375 34.328125 -18.453125 Z M 34.328125 -18.453125 "/></g></g></g><g fill="#604cc3" fill-opacity="1"><g transform="translate(231.326083, 202.913423)"><g><path d="M 19.421875 -44.28125 C 21.015625 -46.832031 23.050781 -48.789062 25.53125 -50.15625 C 28.019531 -51.53125 30.890625 -52.21875 34.140625 -52.21875 C 38.222656 -52.21875 41.875 -51.148438 45.09375 -49.015625 C 48.3125 -46.878906 50.8125 -43.832031 52.59375 -39.875 C 54.382812 -35.925781 55.28125 -31.304688 55.28125 -26.015625 C 55.28125 -20.722656 54.4375 -16.003906 52.75 -11.859375 C 51.0625 -7.710938 48.601562 -4.472656 45.375 -2.140625 C 42.15625 0.179688 38.316406 1.34375 33.859375 1.34375 C 30.796875 1.34375 27.957031 0.738281 25.34375 -0.46875 C 22.726562 -1.6875 20.65625 -3.664062 19.125 -6.40625 L 18.9375 -6.40625 L 18.9375 0 L 5.828125 0 L 5.828125 -68.671875 L 19.21875 -68.671875 L 19.21875 -44.28125 Z M 41.515625 -25.15625 C 41.515625 -30 40.539062 -33.789062 38.59375 -36.53125 C 36.644531 -39.269531 33.789062 -40.640625 30.03125 -40.640625 C 26.332031 -40.640625 23.507812 -39.269531 21.5625 -36.53125 C 19.625 -33.789062 18.65625 -29.710938 18.65625 -24.296875 C 18.65625 -19.828125 19.722656 -16.269531 21.859375 -13.625 C 23.992188 -10.976562 26.941406 -9.65625 30.703125 -9.65625 C 34.078125 -9.65625 36.722656 -11.15625 38.640625 -14.15625 C 40.554688 -17.15625 41.515625 -20.820312 41.515625 -25.15625 Z M 41.515625 -25.15625 "/></g></g></g><g fill="#604cc3" fill-opacity="1"><g transform="translate(289.761425, 202.913423)"><g><path d="M 55.28125 -25.4375 C 55.28125 -19.957031 54.195312 -15.207031 52.03125 -11.1875 C 49.863281 -7.175781 46.800781 -4.082031 42.84375 -1.90625 C 38.894531 0.257812 34.367188 1.34375 29.265625 1.34375 C 24.160156 1.34375 19.628906 0.257812 15.671875 -1.90625 C 11.722656 -4.082031 8.664062 -7.175781 6.5 -11.1875 C 4.332031 -15.207031 3.25 -19.957031 3.25 -25.4375 C 3.25 -30.925781 4.347656 -35.691406 6.546875 -39.734375 C 8.742188 -43.785156 11.816406 -46.878906 15.765625 -49.015625 C 19.722656 -51.148438 24.222656 -52.21875 29.265625 -52.21875 C 34.367188 -52.21875 38.894531 -51.132812 42.84375 -48.96875 C 46.800781 -46.800781 49.863281 -43.707031 52.03125 -39.6875 C 54.195312 -35.675781 55.28125 -30.925781 55.28125 -25.4375 Z M 29.265625 -9.953125 C 33.347656 -9.953125 36.410156 -11.304688 38.453125 -14.015625 C 40.492188 -16.722656 41.515625 -20.53125 41.515625 -25.4375 C 41.515625 -30.351562 40.476562 -34.164062 38.40625 -36.875 C 36.332031 -39.582031 33.253906 -40.9375 29.171875 -40.9375 C 25.285156 -40.9375 22.289062 -39.597656 20.1875 -36.921875 C 18.082031 -34.242188 17.03125 -30.414062 17.03125 -25.4375 C 17.03125 -20.40625 18.0625 -16.566406 20.125 -13.921875 C 22.195312 -11.273438 25.242188 -9.953125 29.265625 -9.953125 Z M 29.265625 -9.953125 "/></g></g></g><g fill="#604cc3" fill-opacity="1"><g transform="translate(348.196767, 202.913423)"><g><path d="M 28.40625 -9.953125 C 31.46875 -9.953125 33.953125 -10.984375 35.859375 -13.046875 C 37.773438 -15.117188 38.734375 -17.847656 38.734375 -21.234375 L 38.734375 -50.875 L 52.125 -50.875 L 52.125 0 L 39.3125 0 L 39.3125 -7.171875 L 39.109375 -7.171875 C 35.796875 -1.492188 30.632812 1.34375 23.625 1.34375 C 18.132812 1.34375 13.875 -0.28125 10.84375 -3.53125 C 7.820312 -6.789062 6.3125 -11.289062 6.3125 -17.03125 L 6.3125 -50.875 L 19.703125 -50.875 L 19.703125 -19.03125 C 19.703125 -16.101562 20.429688 -13.859375 21.890625 -12.296875 C 23.359375 -10.734375 25.53125 -9.953125 28.40625 -9.953125 Z M 28.40625 -9.953125 "/></g></g></g><g fill="#604cc3" fill-opacity="1"><g transform="translate(406.632109, 202.913423)"><g><path d="M 29.546875 -50.875 L 29.546875 -41.3125 L 21.234375 -41.3125 L 21.234375 -12.90625 C 21.234375 -11.570312 21.597656 -10.679688 22.328125 -10.234375 C 23.066406 -9.785156 24.519531 -9.5625 26.6875 -9.5625 C 27.195312 -9.5625 28.148438 -9.625 29.546875 -9.75 L 29.546875 0.375 C 25.984375 0.507812 23.59375 0.578125 22.375 0.578125 C 18.300781 0.578125 15.210938 0.144531 13.109375 -0.71875 C 11.003906 -1.582031 9.597656 -2.789062 8.890625 -4.34375 C 8.191406 -5.90625 7.84375 -7.960938 7.84375 -10.515625 L 7.84375 -41.3125 L 0.953125 -41.3125 L 0.953125 -50.875 L 7.84375 -50.875 L 7.84375 -64.65625 L 21.234375 -64.65625 L 21.234375 -50.875 Z M 29.546875 -50.875 "/></g></g></g><g fill="#ff7f3e" fill-opacity="1"><g transform="translate(510.27454, 209.541823)"><g><path d="M -7.734375 -22.0625 C -7.734375 -24.4375 -8.535156 -26.367188 -10.140625 -27.859375 C -11.753906 -29.347656 -13.875 -30.09375 -16.5 -30.09375 L -39.53125 -30.09375 L -39.53125 -40.484375 L 0 -40.484375 L 0 -30.53125 L -5.578125 -30.53125 L -5.578125 -30.390625 C -1.160156 -27.816406 1.046875 -23.800781 1.046875 -18.34375 C 1.046875 -14.09375 -0.210938 -10.789062 -2.734375 -8.4375 C -5.265625 -6.082031 -8.757812 -4.90625 -13.21875 -4.90625 L -39.53125 -4.90625 L -39.53125 -15.3125 L -14.78125 -15.3125 C -12.507812 -15.3125 -10.765625 -15.878906 -9.546875 -17.015625 C -8.335938 -18.148438 -7.734375 -19.832031 -7.734375 -22.0625 Z M -7.734375 -22.0625 "/></g></g></g><g fill="#ff7f3e" fill-opacity="1"><g transform="translate(510.27454, 164.144053)"><g><path d="M -27.484375 -37.375 L -27.484375 -27.1875 C -29.421875 -26.894531 -30.769531 -26.191406 -31.53125 -25.078125 C -32.300781 -23.960938 -32.6875 -22.316406 -32.6875 -20.140625 C -32.6875 -18.054688 -32.390625 -16.476562 -31.796875 -15.40625 C -31.203125 -14.34375 -30.210938 -13.8125 -28.828125 -13.8125 C -27.734375 -13.8125 -26.863281 -14.601562 -26.21875 -16.1875 C -25.582031 -17.78125 -24.941406 -20.332031 -24.296875 -23.84375 C -23.253906 -29.289062 -21.789062 -33.101562 -19.90625 -35.28125 C -18.03125 -37.46875 -15.601562 -38.5625 -12.625 -38.5625 C -8.019531 -38.5625 -4.585938 -36.9375 -2.328125 -33.6875 C -0.078125 -30.445312 1.046875 -26.226562 1.046875 -21.03125 C 1.046875 -15.226562 -0.175781 -10.644531 -2.625 -7.28125 C -5.082031 -3.914062 -8.414062 -2.234375 -12.625 -2.234375 L -12.625 -12.921875 C -8.757812 -12.921875 -6.828125 -15.769531 -6.828125 -21.46875 C -6.828125 -23.5 -7.210938 -25.117188 -7.984375 -26.328125 C -8.753906 -27.546875 -9.734375 -28.15625 -10.921875 -28.15625 C -12.109375 -28.15625 -13.023438 -27.375 -13.671875 -25.8125 C -14.316406 -24.257812 -15.007812 -21.472656 -15.75 -17.453125 C -16.59375 -12.796875 -17.941406 -9.328125 -19.796875 -7.046875 C -21.660156 -4.773438 -24.175781 -3.640625 -27.34375 -3.640625 C -31.300781 -3.640625 -34.492188 -5.050781 -36.921875 -7.875 C -39.347656 -10.695312 -40.5625 -14.609375 -40.5625 -19.609375 C -40.5625 -25.410156 -39.421875 -29.757812 -37.140625 -32.65625 C -34.867188 -35.550781 -31.648438 -37.125 -27.484375 -37.375 Z M -27.484375 -37.375 "/></g></g></g><g fill="#604cc3" fill-opacity="1"><g transform="translate(36.961899, 386.999969)"><g><path d="M 5.25 -72.453125 L 5.25 -80.84375 C 5.25 -96.382812 8.363281 -109.789062 14.59375 -121.0625 C 20.820312 -132.332031 29.675781 -141.046875 41.15625 -147.203125 C 52.632812 -153.367188 66.351562 -156.453125 82.3125 -156.453125 C 104.851562 -156.453125 122.5625 -150.601562 135.4375 -138.90625 C 148.320312 -127.21875 155.675781 -111.015625 157.5 -90.296875 L 114.03125 -90.296875 C 110.8125 -109.898438 100.101562 -119.703125 81.90625 -119.703125 C 71.820312 -119.703125 63.628906 -116.304688 57.328125 -109.515625 C 51.023438 -102.722656 47.875 -92.816406 47.875 -79.796875 L 47.875 -73.5 C 47.875 -60.476562 51.023438 -50.570312 57.328125 -43.78125 C 63.628906 -36.988281 71.820312 -33.59375 81.90625 -33.59375 C 100.101562 -33.59375 110.8125 -43.394531 114.03125 -63 L 157.5 -63 C 155.675781 -42.28125 148.320312 -26.070312 135.4375 -14.375 C 122.5625 -2.6875 104.851562 3.15625 82.3125 3.15625 C 66.351562 3.15625 52.632812 0.078125 41.15625 -6.078125 C 29.675781 -12.242188 20.820312 -20.960938 14.59375 -32.234375 C 8.363281 -43.503906 5.25 -56.910156 5.25 -72.453125 Z M 5.25 -72.453125 "/></g></g></g><g fill="#604cc3" fill-opacity="1"><g transform="translate(209.161593, 386.999969)"><g><path d="M 82.53125 3.15625 C 66.570312 3.15625 52.816406 0.078125 41.265625 -6.078125 C 29.710938 -12.242188 20.820312 -20.960938 14.59375 -32.234375 C 8.363281 -43.503906 5.25 -56.910156 5.25 -72.453125 L 5.25 -80.84375 C 5.25 -96.382812 8.363281 -109.789062 14.59375 -121.0625 C 20.820312 -132.332031 29.710938 -141.046875 41.265625 -147.203125 C 52.816406 -153.367188 66.570312 -156.453125 82.53125 -156.453125 C 98.632812 -156.453125 112.425781 -153.367188 123.90625 -147.203125 C 135.382812 -141.046875 144.238281 -132.332031 150.46875 -121.0625 C 156.695312 -109.789062 159.8125 -96.382812 159.8125 -80.84375 L 159.8125 -72.453125 C 159.8125 -56.910156 156.695312 -43.503906 150.46875 -32.234375 C 144.238281 -20.960938 135.382812 -12.242188 123.90625 -6.078125 C 112.425781 0.078125 98.632812 3.15625 82.53125 3.15625 Z M 82.53125 -33.59375 C 92.882812 -33.59375 101.25 -36.988281 107.625 -43.78125 C 114 -50.570312 117.1875 -60.476562 117.1875 -73.5 L 117.1875 -79.796875 C 117.1875 -92.816406 114 -102.722656 107.625 -109.515625 C 101.25 -116.304688 92.882812 -119.703125 82.53125 -119.703125 C 72.164062 -119.703125 63.796875 -116.304688 57.421875 -109.515625 C 51.054688 -102.722656 47.875 -92.816406 47.875 -79.796875 L 47.875 -73.5 C 47.875 -60.476562 51.054688 -50.570312 57.421875 -43.78125 C 63.796875 -36.988281 72.164062 -33.59375 82.53125 -33.59375 Z M 82.53125 -33.59375 "/></g></g></g><g fill="#604cc3" fill-opacity="1"><g transform="translate(381.991287, 386.999969)"><g><path d="M 54.8125 -153.296875 L 54.8125 0 L 12.8125 0 L 12.8125 -153.296875 Z M 54.8125 -153.296875 "/></g></g></g><g fill="#604cc3" fill-opacity="1"><g transform="translate(457.381181, 386.999969)"><g><path d="M 115.5 -68.671875 L 115.5 -153.296875 L 154.5625 -153.296875 L 154.5625 0 L 118.859375 0 L 51.65625 -93.03125 L 51.65625 0 L 12.59375 0 L 12.59375 -153.296875 L 56.703125 -153.296875 Z M 115.5 -68.671875 "/></g></g></g><g fill="#604cc3" fill-opacity="1"><g transform="translate(632.310882, 386.999969)"><g><path d="M 3.78125 -52.296875 L 46.203125 -52.296875 C 47.035156 -47.953125 48.503906 -44.238281 50.609375 -41.15625 C 52.710938 -38.082031 56.003906 -35.773438 60.484375 -34.234375 C 64.960938 -32.691406 71.050781 -31.921875 78.75 -31.921875 C 86.59375 -31.921875 92.644531 -32.550781 96.90625 -33.8125 C 101.175781 -35.070312 104.1875 -36.679688 105.9375 -38.640625 C 107.6875 -40.597656 108.5625 -42.554688 108.5625 -44.515625 C 108.5625 -46.753906 107.828125 -48.785156 106.359375 -50.609375 C 104.890625 -52.429688 101.597656 -54.21875 96.484375 -55.96875 C 91.378906 -57.71875 83.367188 -59.429688 72.453125 -61.109375 C 55.234375 -63.910156 41.828125 -67.550781 32.234375 -72.03125 C 22.640625 -76.507812 15.914062 -81.898438 12.0625 -88.203125 C 8.21875 -94.503906 6.296875 -101.710938 6.296875 -109.828125 C 6.296875 -118.503906 8.675781 -126.378906 13.4375 -133.453125 C 18.195312 -140.523438 25.546875 -146.125 35.484375 -150.25 C 45.429688 -154.382812 58.242188 -156.453125 73.921875 -156.453125 C 90.296875 -156.453125 103.660156 -154.101562 114.015625 -149.40625 C 124.378906 -144.71875 132.1875 -138.28125 137.4375 -130.09375 C 142.6875 -121.90625 145.734375 -112.488281 146.578125 -101.84375 L 104.578125 -101.84375 C 103.734375 -108.007812 101.25 -112.804688 97.125 -116.234375 C 93 -119.660156 85.613281 -121.375 74.96875 -121.375 C 64.46875 -121.375 57.289062 -120.078125 53.4375 -117.484375 C 49.59375 -114.898438 47.671875 -112.066406 47.671875 -108.984375 C 47.671875 -106.890625 48.507812 -104.859375 50.1875 -102.890625 C 51.863281 -100.929688 55.46875 -99.039062 61 -97.21875 C 66.53125 -95.40625 74.96875 -93.585938 86.3125 -91.765625 C 102.6875 -89.390625 115.492188 -85.992188 124.734375 -81.578125 C 133.972656 -77.171875 140.519531 -71.816406 144.375 -65.515625 C 148.226562 -59.210938 150.15625 -51.863281 150.15625 -43.46875 C 150.15625 -34.789062 147.738281 -26.914062 142.90625 -19.84375 C 138.070312 -12.769531 130.507812 -7.164062 120.21875 -3.03125 C 109.9375 1.09375 96.535156 3.15625 80.015625 3.15625 C 62.367188 3.15625 48.117188 0.847656 37.265625 -3.765625 C 26.421875 -8.390625 18.335938 -14.867188 13.015625 -23.203125 C 7.703125 -31.535156 4.625 -41.234375 3.78125 -52.296875 Z M 3.78125 -52.296875 "/></g></g></g><g fill="#604cc3" fill-opacity="1"><g transform="translate(794.850622, 386.999969)"><g><path d="M 12.59375 -153.296875 L 87.984375 -153.296875 C 107.304688 -153.296875 121.625 -148.957031 130.9375 -140.28125 C 140.25 -131.601562 144.90625 -119.210938 144.90625 -103.109375 C 144.90625 -87.003906 140.25 -74.539062 130.9375 -65.71875 C 121.625 -56.90625 107.304688 -52.5 87.984375 -52.5 L 53.765625 -52.5 L 53.765625 0 L 12.59375 0 Z M 53.765625 -88.203125 L 87.15625 -88.203125 C 97.925781 -88.203125 103.3125 -93.03125 103.3125 -102.6875 C 103.3125 -112.625 97.925781 -117.59375 87.15625 -117.59375 L 53.765625 -117.59375 Z M 53.765625 -88.203125 "/></g></g></g><g fill="#604cc3" fill-opacity="1"><g transform="translate(940.170386, 386.999969)"><g><path d="M 97.015625 -153.296875 L 150.15625 0 L 107.3125 0 L 98.90625 -26.453125 L 49.984375 -26.453125 L 41.578125 0 L -1.046875 0 L 51.65625 -153.296875 Z M 88.625 -59.015625 L 74.34375 -103.953125 L 60.265625 -59.015625 Z M 88.625 -59.015625 "/></g></g></g><g fill="#604cc3" fill-opacity="1"><g transform="translate(1093.260096, 386.999969)"><g><path d="M 5.25 -72.453125 L 5.25 -80.84375 C 5.25 -96.382812 8.363281 -109.789062 14.59375 -121.0625 C 20.820312 -132.332031 29.675781 -141.046875 41.15625 -147.203125 C 52.632812 -153.367188 66.351562 -156.453125 82.3125 -156.453125 C 104.851562 -156.453125 122.5625 -150.601562 135.4375 -138.90625 C 148.320312 -127.21875 155.675781 -111.015625 157.5 -90.296875 L 114.03125 -90.296875 C 110.8125 -109.898438 100.101562 -119.703125 81.90625 -119.703125 C 71.820312 -119.703125 63.628906 -116.304688 57.328125 -109.515625 C 51.023438 -102.722656 47.875 -92.816406 47.875 -79.796875 L 47.875 -73.5 C 47.875 -60.476562 51.023438 -50.570312 57.328125 -43.78125 C 63.628906 -36.988281 71.820312 -33.59375 81.90625 -33.59375 C 100.101562 -33.59375 110.8125 -43.394531 114.03125 -63 L 157.5 -63 C 155.675781 -42.28125 148.320312 -26.070312 135.4375 -14.375 C 122.5625 -2.6875 104.851562 3.15625 82.3125 3.15625 C 66.351562 3.15625 52.632812 0.078125 41.15625 -6.078125 C 29.675781 -12.242188 20.820312 -20.960938 14.59375 -32.234375 C 8.363281 -43.503906 5.25 -56.910156 5.25 -72.453125 Z M 5.25 -72.453125 "/></g></g></g><g fill="#604cc3" fill-opacity="1"><g transform="translate(1263.359753, 386.999969)"><g><path d="M 135.03125 0 L 12.59375 0 L 12.59375 -153.296875 L 131.453125 -153.296875 L 131.453125 -117.59375 L 53.96875 -117.59375 L 53.96875 -95.125 L 123.90625 -95.125 L 123.90625 -59.84375 L 53.96875 -59.84375 L 53.96875 -35.90625 L 135.03125 -35.90625 Z M 135.03125 0 "/></g></g></g></svg>