<svg xmlns="http://www.w3.org/2000/svg" xmlns:xlink="http://www.w3.org/1999/xlink" width="480" zoomAndPan="magnify" viewBox="0 0 360 959.999988" height="1280" preserveAspectRatio="xMidYMid meet" version="1.2"><defs/><g id="c42a3b2ae5"><g style="fill:#fef4ea;fill-opacity:1;"><g transform="translate(28.252145, 174.256886)"><path style="stroke:none" d="M 72.359375 -112.25 L 72.359375 0 L 43.875 0 L 43.875 -112.25 L 2.65625 -112.25 L 2.65625 -136.375 L 113.578125 -136.375 L 113.578125 -112.25 Z M 72.359375 -112.25 "/></g></g><g style="fill:#fef4ea;fill-opacity:1;"><g transform="translate(28.252145, 354.256876)"><path style="stroke:none" d="M 42.359375 -112.25 L 42.359375 -83.578125 L 108.828125 -83.578125 L 108.828125 -59.453125 L 42.359375 -59.453125 L 42.359375 -24.125 L 117.953125 -24.125 L 117.953125 0 L 14.4375 0 L 14.4375 -136.375 L 114.71875 -136.375 L 114.71875 -112.25 Z M 42.359375 -112.25 "/></g></g><g style="fill:#fef4ea;fill-opacity:1;"><g transform="translate(28.252145, 534.256866)"><path style="stroke:none" d="M 126.3125 -97.8125 C 126.3125 -90.09375 124.472656 -83.316406 120.796875 -77.484375 C 117.128906 -71.660156 111.9375 -67.613281 105.21875 -65.34375 L 109.78125 -63.0625 C 114.976562 -60.269531 118.398438 -56.34375 120.046875 -51.28125 C 121.691406 -46.21875 122.515625 -39.890625 122.515625 -32.296875 L 122.515625 -19.5625 C 122.515625 -9.9375 124.539062 -4.617188 128.59375 -3.609375 L 128.59375 0 L 97.0625 0 C 96.300781 -2.28125 95.632812 -5.253906 95.0625 -8.921875 C 94.488281 -12.597656 94.203125 -16.082031 94.203125 -19.375 L 94.015625 -34.1875 C 94.015625 -40.007812 93 -44.28125 90.96875 -47 C 88.945312 -49.726562 86.414062 -51.472656 83.375 -52.234375 C 80.34375 -52.992188 76.421875 -53.375 71.609375 -53.375 L 42.359375 -53.375 L 42.359375 0 L 14.4375 0 L 14.4375 -136.375 L 84.90625 -136.375 C 93.382812 -136.375 100.757812 -134.597656 107.03125 -131.046875 C 113.300781 -127.503906 118.082031 -122.820312 121.375 -117 C 124.664062 -111.175781 126.3125 -104.78125 126.3125 -97.8125 Z M 97.8125 -94.96875 C 97.8125 -100.414062 96.070312 -104.753906 92.59375 -107.984375 C 89.113281 -111.210938 84.460938 -112.828125 78.640625 -112.828125 L 42.359375 -112.828125 L 42.359375 -76.359375 L 76.546875 -76.359375 C 83.640625 -76.359375 88.957031 -77.78125 92.5 -80.625 C 96.039062 -83.476562 97.8125 -88.257812 97.8125 -94.96875 Z M 97.8125 -94.96875 "/></g></g><g style="fill:#fef4ea;fill-opacity:1;"><g transform="translate(28.252145, 714.256857)"><path style="stroke:none" d="M 79.78125 -28.875 L 104.078125 -136.375 L 145.296875 -136.375 L 145.296875 0 L 118.71875 0 L 118.71875 -113.96875 L 118.328125 -113.96875 L 92.875 0 L 64.953125 0 L 40.078125 -113.96875 L 39.703125 -113.96875 L 39.703125 0 L 13.109375 0 L 13.109375 -136.375 L 54.703125 -136.375 L 79.390625 -28.875 Z M 79.78125 -28.875 "/></g></g><g style="fill:#fef4ea;fill-opacity:1;"><g transform="translate(28.252145, 894.256847)"><path style="stroke:none" d="M 59.828125 -116.4375 C 52.867188 -116.4375 47.171875 -114.945312 42.734375 -111.96875 C 38.304688 -108.988281 36.09375 -105.03125 36.09375 -100.09375 C 36.09375 -96.425781 37.132812 -93.421875 39.21875 -91.078125 C 41.3125 -88.734375 45.648438 -86.800781 52.234375 -85.28125 L 84.328125 -77.5 C 97.492188 -74.332031 106.640625 -69.769531 111.765625 -63.8125 C 116.898438 -57.863281 119.46875 -50.269531 119.46875 -41.03125 C 119.46875 -31.28125 117.09375 -23.046875 112.34375 -16.328125 C 107.59375 -9.617188 101.164062 -4.617188 93.0625 -1.328125 C 84.957031 1.960938 75.78125 3.609375 65.53125 3.609375 C 47.550781 3.609375 33.492188 -0.1875 23.359375 -7.78125 C 13.234375 -15.382812 7.914062 -26.78125 7.40625 -41.96875 L 34.765625 -41.96875 C 35.015625 -35.007812 37.609375 -29.597656 42.546875 -25.734375 C 47.484375 -21.867188 54.507812 -19.9375 63.625 -19.9375 C 72.875 -19.9375 79.9375 -21.394531 84.8125 -24.3125 C 89.6875 -27.226562 92.125 -31.660156 92.125 -37.609375 C 92.125 -41.410156 90.820312 -44.382812 88.21875 -46.53125 C 85.625 -48.6875 81.285156 -50.648438 75.203125 -52.421875 C 69.128906 -54.191406 59.003906 -56.660156 44.828125 -59.828125 C 32.421875 -62.617188 23.429688 -67.050781 17.859375 -73.125 C 12.285156 -79.207031 9.5 -87.5 9.5 -98 C 9.5 -106.101562 11.425781 -113.320312 15.28125 -119.65625 C 19.144531 -125.988281 25.003906 -130.957031 32.859375 -134.5625 C 40.710938 -138.175781 50.398438 -139.984375 61.921875 -139.984375 C 72.429688 -139.984375 81.640625 -138.175781 89.546875 -134.5625 C 97.460938 -130.957031 103.632812 -125.832031 108.0625 -119.1875 C 112.5 -112.539062 114.847656 -104.785156 115.109375 -95.921875 L 87.75 -95.921875 C 86.488281 -109.597656 77.179688 -116.4375 59.828125 -116.4375 Z M 59.828125 -116.4375 "/></g></g><g style="fill:#fef4ea;fill-opacity:1;"><g transform="translate(121.712016, 100.683953)"><path style="stroke:none" d="M 11.21875 -19.328125 L 11.21875 -15.6875 L 8.0625 -15.6875 L 8.0625 -4.90625 C 8.0625 -4.394531 8.203125 -4.050781 8.484375 -3.875 C 8.765625 -3.707031 9.316406 -3.625 10.140625 -3.625 C 10.328125 -3.625 10.6875 -3.648438 11.21875 -3.703125 L 11.21875 0.140625 C 9.863281 0.191406 8.957031 0.21875 8.5 0.21875 C 6.945312 0.21875 5.769531 0.0546875 4.96875 -0.265625 C 4.175781 -0.597656 3.644531 -1.0625 3.375 -1.65625 C 3.113281 -2.25 2.984375 -3.03125 2.984375 -4 L 2.984375 -15.6875 L 0.359375 -15.6875 L 0.359375 -19.328125 L 2.984375 -19.328125 L 2.984375 -24.5625 L 8.0625 -24.5625 L 8.0625 -19.328125 Z M 11.21875 -19.328125 "/></g></g><g style="fill:#fef4ea;fill-opacity:1;"><g transform="translate(133.804979, 100.683953)"><path style="stroke:none" d="M 10.46875 -3.5625 C 11.21875 -3.5625 11.898438 -3.742188 12.515625 -4.109375 C 13.128906 -4.472656 13.535156 -4.992188 13.734375 -5.671875 L 18.96875 -5.671875 C 18.40625 -3.703125 17.375 -2.175781 15.875 -1.09375 C 14.375 -0.0195312 12.570312 0.515625 10.46875 0.515625 C 7.269531 0.515625 4.863281 -0.367188 3.25 -2.140625 C 1.632812 -3.910156 0.828125 -6.539062 0.828125 -10.03125 C 0.828125 -11.9375 1.1875 -13.628906 1.90625 -15.109375 C 2.625 -16.585938 3.671875 -17.742188 5.046875 -18.578125 C 6.429688 -19.410156 8.101562 -19.828125 10.0625 -19.828125 C 12.820312 -19.828125 15.03125 -18.941406 16.6875 -17.171875 C 18.351562 -15.410156 19.1875 -12.738281 19.1875 -9.15625 L 19.1875 -8.28125 L 5.921875 -8.28125 C 6.085938 -5.132812 7.601562 -3.5625 10.46875 -3.5625 Z M 9.984375 -15.65625 C 7.660156 -15.65625 6.351562 -14.300781 6.0625 -11.59375 L 13.953125 -11.59375 C 13.828125 -12.851562 13.410156 -13.84375 12.703125 -14.5625 C 12.003906 -15.289062 11.097656 -15.65625 9.984375 -15.65625 Z M 9.984375 -15.65625 "/></g></g><g style="fill:#fef4ea;fill-opacity:1;"><g transform="translate(153.996229, 100.683953)"><path style="stroke:none" d="M 13.546875 -19.765625 L 13.546875 -14.609375 C 13.160156 -14.648438 12.703125 -14.671875 12.171875 -14.671875 C 8.992188 -14.671875 7.40625 -13.171875 7.40625 -10.171875 L 7.40625 0 L 2.328125 0 L 2.328125 -19.328125 L 7.1875 -19.328125 L 7.1875 -15.984375 L 7.265625 -15.984375 C 7.992188 -17.410156 8.769531 -18.40625 9.59375 -18.96875 C 10.414062 -19.539062 11.40625 -19.828125 12.5625 -19.828125 C 12.6875 -19.828125 13.015625 -19.804688 13.546875 -19.765625 Z M 13.546875 -19.765625 "/></g></g><g style="fill:#fef4ea;fill-opacity:1;"><g transform="translate(168.122841, 100.683953)"><path style="stroke:none" d="M 18.125 -16.75 C 19.457031 -18.800781 21.175781 -19.828125 23.28125 -19.828125 C 24.644531 -19.828125 25.832031 -19.554688 26.84375 -19.015625 C 27.863281 -18.472656 28.644531 -17.71875 29.1875 -16.75 C 29.726562 -15.78125 30 -14.691406 30 -13.484375 L 30 0 L 24.921875 0 L 24.921875 -11.875 C 24.921875 -13.132812 24.664062 -14.0625 24.15625 -14.65625 C 23.644531 -15.25 22.96875 -15.546875 22.125 -15.546875 C 20.914062 -15.546875 20.039062 -15.1875 19.5 -14.46875 C 18.96875 -13.757812 18.703125 -12.8125 18.703125 -11.625 L 18.703125 0 L 13.625 0 L 13.625 -11.984375 C 13.625 -13.265625 13.375 -14.175781 12.875 -14.71875 C 12.382812 -15.269531 11.617188 -15.546875 10.578125 -15.546875 C 9.535156 -15.546875 8.742188 -15.222656 8.203125 -14.578125 C 7.671875 -13.941406 7.40625 -13.054688 7.40625 -11.921875 L 7.40625 0 L 2.328125 0 L 2.328125 -19.328125 L 7.1875 -19.328125 L 7.1875 -16.5 L 7.265625 -16.5 C 8.398438 -18.71875 10.226562 -19.828125 12.75 -19.828125 C 13.988281 -19.828125 15.019531 -19.601562 15.84375 -19.15625 C 16.664062 -18.707031 17.425781 -17.90625 18.125 -16.75 Z M 18.125 -16.75 "/></g></g><g style="fill:#fef4ea;fill-opacity:1;"><g transform="translate(200.407053, 100.683953)"><path style="stroke:none" d="M 18.265625 -13.4375 L 13.296875 -13.4375 C 13.148438 -14.382812 12.800781 -15.046875 12.25 -15.421875 C 11.707031 -15.796875 10.90625 -15.984375 9.84375 -15.984375 C 8.820312 -15.984375 8.050781 -15.835938 7.53125 -15.546875 C 7.007812 -15.253906 6.75 -14.769531 6.75 -14.09375 C 6.75 -13.5625 7.132812 -13.132812 7.90625 -12.8125 C 8.6875 -12.5 9.9375 -12.1875 11.65625 -11.875 C 14.320312 -11.363281 16.1875 -10.648438 17.25 -9.734375 C 18.320312 -8.816406 18.859375 -7.628906 18.859375 -6.171875 C 18.859375 -3.921875 18.0625 -2.242188 16.46875 -1.140625 C 14.882812 -0.0351562 12.820312 0.515625 10.28125 0.515625 C 7.445312 0.515625 5.207031 -0.0820312 3.5625 -1.28125 C 1.914062 -2.488281 1.09375 -4.117188 1.09375 -6.171875 L 6.328125 -6.171875 C 6.328125 -4.285156 7.71875 -3.34375 10.5 -3.34375 C 11.488281 -3.34375 12.28125 -3.53125 12.875 -3.90625 C 13.46875 -4.28125 13.765625 -4.757812 13.765625 -5.34375 C 13.765625 -5.925781 13.382812 -6.375 12.625 -6.6875 C 11.863281 -7 10.5 -7.335938 8.53125 -7.703125 C 6.257812 -8.109375 4.566406 -8.765625 3.453125 -9.671875 C 2.335938 -10.585938 1.78125 -11.820312 1.78125 -13.375 C 1.78125 -15.3125 2.46875 -16.867188 3.84375 -18.046875 C 5.226562 -19.234375 7.144531 -19.828125 9.59375 -19.828125 C 12.425781 -19.828125 14.550781 -19.269531 15.96875 -18.15625 C 17.382812 -17.050781 18.148438 -15.476562 18.265625 -13.4375 Z M 18.265625 -13.4375 "/></g></g><g style="fill:#fef4ea;fill-opacity:1;"><g transform="translate(121.712016, 134.755638)"><path style="stroke:none" d="M 19.140625 -0.765625 L 19.140625 0 L 13.65625 0 C 13.363281 -0.84375 13.207031 -1.601562 13.1875 -2.28125 C 12.269531 -1.289062 11.3125 -0.578125 10.3125 -0.140625 C 9.320312 0.296875 8.195312 0.515625 6.9375 0.515625 C 5.164062 0.515625 3.738281 0.00390625 2.65625 -1.015625 C 1.582031 -2.035156 1.046875 -3.40625 1.046875 -5.125 C 1.046875 -6.75 1.488281 -8.097656 2.375 -9.171875 C 3.257812 -10.253906 4.84375 -10.988281 7.125 -11.375 L 10.75 -11.921875 C 11.675781 -12.066406 12.289062 -12.242188 12.59375 -12.453125 C 12.894531 -12.671875 13.046875 -13.035156 13.046875 -13.546875 C 13.046875 -14.273438 12.785156 -14.828125 12.265625 -15.203125 C 11.742188 -15.578125 10.890625 -15.765625 9.703125 -15.765625 C 7.785156 -15.765625 6.742188 -14.867188 6.578125 -13.078125 L 1.671875 -13.078125 C 1.867188 -15.285156 2.613281 -16.960938 3.90625 -18.109375 C 5.195312 -19.253906 7.285156 -19.828125 10.171875 -19.828125 C 12.640625 -19.828125 14.5625 -19.34375 15.9375 -18.375 C 17.320312 -17.40625 18.015625 -16.078125 18.015625 -14.390625 L 18.015625 -3.59375 C 18.015625 -2.695312 18.101562 -2.035156 18.28125 -1.609375 C 18.46875 -1.191406 18.753906 -0.910156 19.140625 -0.765625 Z M 13.046875 -7.015625 L 13.046875 -9.40625 C 12.609375 -9.144531 12.132812 -8.929688 11.625 -8.765625 C 11.113281 -8.609375 10.375 -8.457031 9.40625 -8.3125 C 8.320312 -8.164062 7.503906 -7.867188 6.953125 -7.421875 C 6.410156 -6.972656 6.140625 -6.316406 6.140625 -5.453125 C 6.140625 -4.742188 6.359375 -4.175781 6.796875 -3.75 C 7.234375 -3.332031 7.800781 -3.125 8.5 -3.125 C 9.25 -3.125 9.972656 -3.285156 10.671875 -3.609375 C 11.378906 -3.941406 11.953125 -4.40625 12.390625 -5 C 12.828125 -5.59375 13.046875 -6.265625 13.046875 -7.015625 Z M 13.046875 -7.015625 "/></g></g><g style="fill:#fef4ea;fill-opacity:1;"><g transform="translate(141.903266, 134.755638)"><path style="stroke:none" d="M 19.828125 -13.515625 L 19.828125 0 L 14.75 0 L 14.75 -12.25 C 14.75 -13.3125 14.460938 -14.125 13.890625 -14.6875 C 13.328125 -15.257812 12.507812 -15.546875 11.4375 -15.546875 C 10.25 -15.546875 9.285156 -15.15625 8.546875 -14.375 C 7.816406 -13.601562 7.453125 -12.550781 7.453125 -11.21875 L 7.453125 0 L 2.359375 0 L 2.359375 -19.328125 L 7.234375 -19.328125 L 7.234375 -16.5 L 7.296875 -16.5 C 7.898438 -17.632812 8.695312 -18.472656 9.6875 -19.015625 C 10.6875 -19.554688 11.828125 -19.828125 13.109375 -19.828125 C 14.441406 -19.828125 15.613281 -19.554688 16.625 -19.015625 C 17.644531 -18.472656 18.429688 -17.722656 18.984375 -16.765625 C 19.546875 -15.804688 19.828125 -14.722656 19.828125 -13.515625 Z M 19.828125 -13.515625 "/></g></g><g style="fill:#fef4ea;fill-opacity:1;"><g transform="translate(164.091854, 134.755638)"><path style="stroke:none" d="M 15.046875 0 L 15.046875 -2.4375 L 14.96875 -2.4375 C 14.363281 -1.414062 13.566406 -0.664062 12.578125 -0.1875 C 11.597656 0.28125 10.53125 0.515625 9.375 0.515625 C 7.695312 0.515625 6.25 0.078125 5.03125 -0.796875 C 3.8125 -1.671875 2.875 -2.890625 2.21875 -4.453125 C 1.5625 -6.015625 1.234375 -7.820312 1.234375 -9.875 C 1.234375 -11.882812 1.570312 -13.640625 2.25 -15.140625 C 2.925781 -16.648438 3.875 -17.804688 5.09375 -18.609375 C 6.320312 -19.421875 7.710938 -19.828125 9.265625 -19.828125 C 10.492188 -19.828125 11.582031 -19.566406 12.53125 -19.046875 C 13.476562 -18.523438 14.253906 -17.78125 14.859375 -16.8125 L 14.9375 -16.8125 L 14.9375 -26.078125 L 20.015625 -26.078125 L 20.015625 0 Z M 15.15625 -9.234375 C 15.15625 -11.210938 14.785156 -12.738281 14.046875 -13.8125 C 13.304688 -14.894531 12.207031 -15.4375 10.75 -15.4375 C 9.394531 -15.4375 8.34375 -14.921875 7.59375 -13.890625 C 6.84375 -12.859375 6.46875 -11.410156 6.46875 -9.546875 C 6.46875 -7.828125 6.84375 -6.414062 7.59375 -5.3125 C 8.34375 -4.21875 9.359375 -3.671875 10.640625 -3.671875 C 12.023438 -3.671875 13.125 -4.171875 13.9375 -5.171875 C 14.75 -6.179688 15.15625 -7.535156 15.15625 -9.234375 Z M 15.15625 -9.234375 "/></g></g><g style="fill:#fef4ea;fill-opacity:1;"><g transform="translate(121.712016, 168.827323)"><path style="stroke:none" d="M 10.609375 -15.546875 C 9.253906 -15.546875 8.222656 -15.035156 7.515625 -14.015625 C 6.816406 -13.003906 6.46875 -11.550781 6.46875 -9.65625 C 6.46875 -7.457031 6.816406 -5.910156 7.515625 -5.015625 C 8.222656 -4.117188 9.179688 -3.671875 10.390625 -3.671875 C 11.335938 -3.671875 12.125 -3.988281 12.75 -4.625 C 13.382812 -5.269531 13.75 -6.078125 13.84375 -7.046875 L 19 -7.046875 C 18.6875 -4.816406 17.773438 -3 16.265625 -1.59375 C 14.765625 -0.1875 12.734375 0.515625 10.171875 0.515625 C 7.265625 0.515625 5.046875 -0.347656 3.515625 -2.078125 C 1.992188 -3.816406 1.234375 -6.164062 1.234375 -9.125 C 1.234375 -12.582031 2.03125 -15.226562 3.625 -17.0625 C 5.226562 -18.90625 7.519531 -19.828125 10.5 -19.828125 C 12.050781 -19.828125 13.457031 -19.535156 14.71875 -18.953125 C 15.976562 -18.378906 16.988281 -17.53125 17.75 -16.40625 C 18.507812 -15.28125 18.9375 -13.953125 19.03125 -12.421875 L 13.875 -12.421875 C 13.726562 -13.367188 13.382812 -14.125 12.84375 -14.6875 C 12.300781 -15.257812 11.554688 -15.546875 10.609375 -15.546875 Z M 10.609375 -15.546875 "/></g></g><g style="fill:#fef4ea;fill-opacity:1;"><g transform="translate(141.903266, 168.827323)"><path style="stroke:none" d="M 21 -9.65625 C 21 -7.570312 20.585938 -5.769531 19.765625 -4.25 C 18.941406 -2.726562 17.773438 -1.550781 16.265625 -0.71875 C 14.765625 0.101562 13.046875 0.515625 11.109375 0.515625 C 9.171875 0.515625 7.453125 0.101562 5.953125 -0.71875 C 4.453125 -1.550781 3.289062 -2.726562 2.46875 -4.25 C 1.644531 -5.769531 1.234375 -7.570312 1.234375 -9.65625 C 1.234375 -11.738281 1.648438 -13.550781 2.484375 -15.09375 C 3.316406 -16.632812 4.484375 -17.804688 5.984375 -18.609375 C 7.492188 -19.421875 9.203125 -19.828125 11.109375 -19.828125 C 13.046875 -19.828125 14.765625 -19.414062 16.265625 -18.59375 C 17.773438 -17.769531 18.941406 -16.59375 19.765625 -15.0625 C 20.585938 -13.539062 21 -11.738281 21 -9.65625 Z M 11.109375 -3.78125 C 12.660156 -3.78125 13.820312 -4.289062 14.59375 -5.3125 C 15.375 -6.34375 15.765625 -7.789062 15.765625 -9.65625 C 15.765625 -11.519531 15.367188 -12.96875 14.578125 -14 C 13.796875 -15.03125 12.628906 -15.546875 11.078125 -15.546875 C 9.597656 -15.546875 8.457031 -15.035156 7.65625 -14.015625 C 6.863281 -13.003906 6.46875 -11.550781 6.46875 -9.65625 C 6.46875 -7.75 6.859375 -6.289062 7.640625 -5.28125 C 8.429688 -4.28125 9.585938 -3.78125 11.109375 -3.78125 Z M 11.109375 -3.78125 "/></g></g><g style="fill:#fef4ea;fill-opacity:1;"><g transform="translate(164.091854, 168.827323)"><path style="stroke:none" d="M 19.828125 -13.515625 L 19.828125 0 L 14.75 0 L 14.75 -12.25 C 14.75 -13.3125 14.460938 -14.125 13.890625 -14.6875 C 13.328125 -15.257812 12.507812 -15.546875 11.4375 -15.546875 C 10.25 -15.546875 9.285156 -15.15625 8.546875 -14.375 C 7.816406 -13.601562 7.453125 -12.550781 7.453125 -11.21875 L 7.453125 0 L 2.359375 0 L 2.359375 -19.328125 L 7.234375 -19.328125 L 7.234375 -16.5 L 7.296875 -16.5 C 7.898438 -17.632812 8.695312 -18.472656 9.6875 -19.015625 C 10.6875 -19.554688 11.828125 -19.828125 13.109375 -19.828125 C 14.441406 -19.828125 15.613281 -19.554688 16.625 -19.015625 C 17.644531 -18.472656 18.429688 -17.722656 18.984375 -16.765625 C 19.546875 -15.804688 19.828125 -14.722656 19.828125 -13.515625 Z M 19.828125 -13.515625 "/></g></g><g style="fill:#fef4ea;fill-opacity:1;"><g transform="translate(186.280441, 168.827323)"><path style="stroke:none" d="M 15.046875 0 L 15.046875 -2.4375 L 14.96875 -2.4375 C 14.363281 -1.414062 13.566406 -0.664062 12.578125 -0.1875 C 11.597656 0.28125 10.53125 0.515625 9.375 0.515625 C 7.695312 0.515625 6.25 0.078125 5.03125 -0.796875 C 3.8125 -1.671875 2.875 -2.890625 2.21875 -4.453125 C 1.5625 -6.015625 1.234375 -7.820312 1.234375 -9.875 C 1.234375 -11.882812 1.570312 -13.640625 2.25 -15.140625 C 2.925781 -16.648438 3.875 -17.804688 5.09375 -18.609375 C 6.320312 -19.421875 7.710938 -19.828125 9.265625 -19.828125 C 10.492188 -19.828125 11.582031 -19.566406 12.53125 -19.046875 C 13.476562 -18.523438 14.253906 -17.78125 14.859375 -16.8125 L 14.9375 -16.8125 L 14.9375 -26.078125 L 20.015625 -26.078125 L 20.015625 0 Z M 15.15625 -9.234375 C 15.15625 -11.210938 14.785156 -12.738281 14.046875 -13.8125 C 13.304688 -14.894531 12.207031 -15.4375 10.75 -15.4375 C 9.394531 -15.4375 8.34375 -14.921875 7.59375 -13.890625 C 6.84375 -12.859375 6.46875 -11.410156 6.46875 -9.546875 C 6.46875 -7.828125 6.84375 -6.414062 7.59375 -5.3125 C 8.34375 -4.21875 9.359375 -3.671875 10.640625 -3.671875 C 12.023438 -3.671875 13.125 -4.171875 13.9375 -5.171875 C 14.75 -6.179688 15.15625 -7.535156 15.15625 -9.234375 Z M 15.15625 -9.234375 "/></g></g><g style="fill:#fef4ea;fill-opacity:1;"><g transform="translate(208.469029, 168.827323)"><path style="stroke:none" d="M 2.5 -21.609375 L 2.5 -26.34375 L 7.59375 -26.34375 L 7.59375 -21.609375 Z M 2.5 0 L 2.5 -19.328125 L 7.59375 -19.328125 L 7.59375 0 Z M 2.5 0 "/></g></g><g style="fill:#fef4ea;fill-opacity:1;"><g transform="translate(218.564654, 168.827323)"><path style="stroke:none" d="M 11.21875 -19.328125 L 11.21875 -15.6875 L 8.0625 -15.6875 L 8.0625 -4.90625 C 8.0625 -4.394531 8.203125 -4.050781 8.484375 -3.875 C 8.765625 -3.707031 9.316406 -3.625 10.140625 -3.625 C 10.328125 -3.625 10.6875 -3.648438 11.21875 -3.703125 L 11.21875 0.140625 C 9.863281 0.191406 8.957031 0.21875 8.5 0.21875 C 6.945312 0.21875 5.769531 0.0546875 4.96875 -0.265625 C 4.175781 -0.597656 3.644531 -1.0625 3.375 -1.65625 C 3.113281 -2.25 2.984375 -3.03125 2.984375 -4 L 2.984375 -15.6875 L 0.359375 -15.6875 L 0.359375 -19.328125 L 2.984375 -19.328125 L 2.984375 -24.5625 L 8.0625 -24.5625 L 8.0625 -19.328125 Z M 11.21875 -19.328125 "/></g></g><g style="fill:#fef4ea;fill-opacity:1;"><g transform="translate(230.657617, 168.827323)"><path style="stroke:none" d="M 2.5 -21.609375 L 2.5 -26.34375 L 7.59375 -26.34375 L 7.59375 -21.609375 Z M 2.5 0 L 2.5 -19.328125 L 7.59375 -19.328125 L 7.59375 0 Z M 2.5 0 "/></g></g><g style="fill:#fef4ea;fill-opacity:1;"><g transform="translate(240.753241, 168.827323)"><path style="stroke:none" d="M 21 -9.65625 C 21 -7.570312 20.585938 -5.769531 19.765625 -4.25 C 18.941406 -2.726562 17.773438 -1.550781 16.265625 -0.71875 C 14.765625 0.101562 13.046875 0.515625 11.109375 0.515625 C 9.171875 0.515625 7.453125 0.101562 5.953125 -0.71875 C 4.453125 -1.550781 3.289062 -2.726562 2.46875 -4.25 C 1.644531 -5.769531 1.234375 -7.570312 1.234375 -9.65625 C 1.234375 -11.738281 1.648438 -13.550781 2.484375 -15.09375 C 3.316406 -16.632812 4.484375 -17.804688 5.984375 -18.609375 C 7.492188 -19.421875 9.203125 -19.828125 11.109375 -19.828125 C 13.046875 -19.828125 14.765625 -19.414062 16.265625 -18.59375 C 17.773438 -17.769531 18.941406 -16.59375 19.765625 -15.0625 C 20.585938 -13.539062 21 -11.738281 21 -9.65625 Z M 11.109375 -3.78125 C 12.660156 -3.78125 13.820312 -4.289062 14.59375 -5.3125 C 15.375 -6.34375 15.765625 -7.789062 15.765625 -9.65625 C 15.765625 -11.519531 15.367188 -12.96875 14.578125 -14 C 13.796875 -15.03125 12.628906 -15.546875 11.078125 -15.546875 C 9.597656 -15.546875 8.457031 -15.035156 7.65625 -14.015625 C 6.863281 -13.003906 6.46875 -11.550781 6.46875 -9.65625 C 6.46875 -7.75 6.859375 -6.289062 7.640625 -5.28125 C 8.429688 -4.28125 9.585938 -3.78125 11.109375 -3.78125 Z M 11.109375 -3.78125 "/></g></g><g style="fill:#fef4ea;fill-opacity:1;"><g transform="translate(262.941836, 168.827323)"><path style="stroke:none" d="M 19.828125 -13.515625 L 19.828125 0 L 14.75 0 L 14.75 -12.25 C 14.75 -13.3125 14.460938 -14.125 13.890625 -14.6875 C 13.328125 -15.257812 12.507812 -15.546875 11.4375 -15.546875 C 10.25 -15.546875 9.285156 -15.15625 8.546875 -14.375 C 7.816406 -13.601562 7.453125 -12.550781 7.453125 -11.21875 L 7.453125 0 L 2.359375 0 L 2.359375 -19.328125 L 7.234375 -19.328125 L 7.234375 -16.5 L 7.296875 -16.5 C 7.898438 -17.632812 8.695312 -18.472656 9.6875 -19.015625 C 10.6875 -19.554688 11.828125 -19.828125 13.109375 -19.828125 C 14.441406 -19.828125 15.613281 -19.554688 16.625 -19.015625 C 17.644531 -18.472656 18.429688 -17.722656 18.984375 -16.765625 C 19.546875 -15.804688 19.828125 -14.722656 19.828125 -13.515625 Z M 19.828125 -13.515625 "/></g></g><g style="fill:#fef4ea;fill-opacity:1;"><g transform="translate(285.130409, 168.827323)"><path style="stroke:none" d="M 18.265625 -13.4375 L 13.296875 -13.4375 C 13.148438 -14.382812 12.800781 -15.046875 12.25 -15.421875 C 11.707031 -15.796875 10.90625 -15.984375 9.84375 -15.984375 C 8.820312 -15.984375 8.050781 -15.835938 7.53125 -15.546875 C 7.007812 -15.253906 6.75 -14.769531 6.75 -14.09375 C 6.75 -13.5625 7.132812 -13.132812 7.90625 -12.8125 C 8.6875 -12.5 9.9375 -12.1875 11.65625 -11.875 C 14.320312 -11.363281 16.1875 -10.648438 17.25 -9.734375 C 18.320312 -8.816406 18.859375 -7.628906 18.859375 -6.171875 C 18.859375 -3.921875 18.0625 -2.242188 16.46875 -1.140625 C 14.882812 -0.0351562 12.820312 0.515625 10.28125 0.515625 C 7.445312 0.515625 5.207031 -0.0820312 3.5625 -1.28125 C 1.914062 -2.488281 1.09375 -4.117188 1.09375 -6.171875 L 6.328125 -6.171875 C 6.328125 -4.285156 7.71875 -3.34375 10.5 -3.34375 C 11.488281 -3.34375 12.28125 -3.53125 12.875 -3.90625 C 13.46875 -4.28125 13.765625 -4.757812 13.765625 -5.34375 C 13.765625 -5.925781 13.382812 -6.375 12.625 -6.6875 C 11.863281 -7 10.5 -7.335938 8.53125 -7.703125 C 6.257812 -8.109375 4.566406 -8.765625 3.453125 -9.671875 C 2.335938 -10.585938 1.78125 -11.820312 1.78125 -13.375 C 1.78125 -15.3125 2.46875 -16.867188 3.84375 -18.046875 C 5.226562 -19.234375 7.144531 -19.828125 9.59375 -19.828125 C 12.425781 -19.828125 14.550781 -19.269531 15.96875 -18.15625 C 17.382812 -17.050781 18.148438 -15.476562 18.265625 -13.4375 Z M 18.265625 -13.4375 "/></g></g></g></svg>