<?xml version="1.0" encoding="UTF-8"?>
<svg version="1.1" xmlns="http://www.w3.org/2000/svg" width="1563" height="1563">
<path d="M0 0 C8.81530058 -0.09393823 17.62593951 -0.0677808 26.44091797 0.04589844 C27.47490723 0.0584668 28.50889648 0.07103516 29.57421875 0.08398438 C76.48481523 0.84123004 123.842099 7.08002321 169.44091797 18.04589844 C170.61138672 18.32481934 171.78185547 18.60374023 172.98779297 18.89111328 C250.95025236 37.68711579 325.68093988 69.22021377 401.44091797 119.04589844 C402.10027344 119.5023877 402.75962891 119.95887695 403.43896484 120.42919922 C413.95746827 127.72452571 424.26938556 135.27508561 434.44091797 143.04589844 C435.54185791 143.88556152 435.54185791 143.88556152 436.66503906 144.7421875 C446.25941552 152.0777385 455.63299833 159.5942066 464.72119141 167.54833984 C466.48498334 169.08427109 468.26184492 170.60375739 470.04248047 172.12011719 C483.77845358 183.84781135 496.77360003 196.3005371 509.56591797 209.04589844 C510.4426416 209.91794922 511.31936523 210.79 512.22265625 211.68847656 C516.59786883 216.07462928 520.82631644 220.52376389 524.86328125 225.22314453 C527.27188598 228.00597383 529.79862339 230.67430028 532.31591797 233.35839844 C536.71995521 238.09742144 540.92493585 242.93986466 544.97607422 247.98730469 C546.86066138 250.3258653 548.76312313 252.64235205 550.68701172 254.94824219 C558.58789868 264.42864841 566.14831693 274.09121681 573.44091797 284.04589844 C573.97072266 284.76390625 574.50052734 285.48191406 575.04638672 286.22167969 C582.36387615 296.14635062 589.34937222 306.21897236 595.92626953 316.64941406 C597.58441812 319.27294509 599.25903856 321.88562404 600.93310547 324.49902344 C610.39019292 339.35163601 619.05501651 354.56691163 627.44091797 370.04589844 C627.90836426 370.89958008 628.37581055 371.75326172 628.85742188 372.6328125 C665.55128161 439.68969579 688.91415948 514.8958688 705.44091797 625.04589844 C705.52555298 625.77933472 705.61018799 626.512771 705.6973877 627.26843262 C710.98677165 673.74483287 711.40459314 723.4931436 705.6973877 769.95288086 C705.42572341 772.16989932 705.16483346 774.38803597 704.90478516 776.60644531 C694.60562687 863.50393984 668.42671279 946.67562147 613.05078125 1051.36865234 C611.51093064 1053.92946548 610.00061036 1056.50519183 608.49951172 1059.08886719 C591.89906288 1087.50404989 572.51165828 1114.90512362 551.10107422 1139.91699219 C548.62312649 1142.81641427 546.21432779 1145.76771255 543.81591797 1148.73339844 C540.19548335 1153.18136097 536.42870137 1157.46381665 532.56591797 1161.70214844 C530.61597072 1163.85282555 528.71065668 1166.03414815 526.81591797 1168.23339844 C524.09606085 1171.36060743 521.23081078 1174.28111257 518.27270508 1177.18164062 C516.55282588 1178.93200682 514.96200835 1180.7343213 513.37451172 1182.60449219 C508.82016048 1187.8406109 503.91899138 1192.71378696 499.00341797 1197.60839844 C498.10042969 1198.51525391 497.19744141 1199.42210937 496.26708984 1200.35644531 C491.70970858 1204.90722646 487.10094338 1209.3255226 482.21264648 1213.51928711 C479.62025498 1215.75302338 477.13242229 1218.08849721 474.62841797 1220.42089844 C470.05793892 1224.63863931 465.37152927 1228.65542483 460.52294922 1232.55371094 C458.20927679 1234.42458928 455.91905218 1236.31321722 453.64013672 1238.22558594 C443.21911761 1246.94927014 432.48560474 1255.12906696 421.44091797 1263.04589844 C420.63783203 1263.62339844 419.83474609 1264.20089844 419.00732422 1264.79589844 C406.12112344 1274.03272716 392.92123247 1282.70266454 379.44091797 1291.04589844 C378.44930664 1291.66110352 377.45769531 1292.27630859 376.43603516 1292.91015625 C362.12609909 1301.74958474 347.55571241 1309.83761451 332.55395508 1317.4387207 C329.72393276 1318.89978548 326.92237397 1320.40615365 324.12458801 1321.92779541 C315.47209543 1326.61859621 306.63065265 1330.76104249 297.62841797 1334.73339844 C296.85601776 1335.07528198 296.08361755 1335.41716553 295.28781128 1335.76940918 C222.63749897 1367.83864082 145.55319678 1387.30186656 66.44091797 1394.04589844 C64.93916519 1394.17689186 64.93916519 1394.17689186 63.40707397 1394.31053162 C53.63414247 1395.09063865 43.91207676 1395.22682521 34.11279297 1395.24902344 C33.25236641 1395.25185081 32.39193985 1395.25467819 31.50543976 1395.25759125 C26.93396209 1395.27249082 22.36251511 1395.28177326 17.79101562 1395.28613281 C14.09332188 1395.29047727 10.39586677 1395.30422434 6.69824219 1395.32714844 C-17.23691042 1395.47241714 -40.76526695 1394.71078544 -64.55908203 1392.04589844 C-66.00734375 1391.88873352 -66.00734375 1391.88873352 -67.48486328 1391.72839355 C-72.64655573 1391.16286466 -77.79183583 1390.51613325 -82.93408203 1389.79589844 C-84.0501886 1389.64249496 -84.0501886 1389.64249496 -85.18884277 1389.48599243 C-124.36695839 1384.06277001 -162.87894275 1375.0095042 -200.55908203 1363.04589844 C-201.79223145 1362.6567627 -203.02538086 1362.26762695 -204.29589844 1361.86669922 C-283.59782739 1336.67133171 -358.75863061 1296.25935929 -423.55908203 1244.04589844 C-424.48849609 1243.29953125 -425.41791016 1242.55316406 -426.37548828 1241.78417969 C-436.85182935 1233.29026123 -447.10045801 1224.53792484 -456.9453125 1215.31811523 C-459.67300873 1212.76623984 -462.43869049 1210.27831738 -465.27026367 1207.84179688 C-469.44836977 1204.19165156 -473.39710464 1200.35272421 -477.31298828 1196.42480469 C-478.01753647 1195.72121323 -478.72208466 1195.01762177 -479.44798279 1194.29270935 C-480.9256157 1192.81575196 -482.4020066 1191.33755101 -483.87719727 1189.8581543 C-486.11574684 1187.61424759 -488.35958676 1185.37573139 -490.60400391 1183.13769531 C-492.04898607 1181.69205226 -493.49365795 1180.24609898 -494.93798828 1178.79980469 C-495.59859756 1178.14121964 -496.25920685 1177.48263458 -496.93983459 1176.80409241 C-500.80504682 1172.91967302 -504.48993846 1168.92654436 -508.06764221 1164.77545166 C-509.9813896 1162.55616804 -511.95690005 1160.39617797 -513.93408203 1158.23339844 C-517.77836448 1153.96844535 -521.45435108 1149.59728994 -525.06298828 1145.13183594 C-526.87106359 1142.89650027 -528.69020966 1140.67401639 -530.52392578 1138.45996094 C-542.57166631 1123.86259091 -553.70370656 1108.61466251 -564.28857422 1092.92822266 C-565.52211325 1091.10066964 -566.76296332 1089.27825199 -568.00439453 1087.45605469 C-612.84707614 1021.28850759 -645.68600488 947.01138803 -674.75569153 568.14807129 C-657.55606032 479.05672318 -623.52393656 391.76557303 -571.55908203 314.04589844 C-571.00961914 313.21848145 -570.46015625 312.39106445 -569.89404297 311.53857422 C-560.63657253 297.62189965 -550.82859778 284.2300748 -540.55908203 271.04589844 C-539.53667644 269.72319056 -538.51451873 268.40029102 -537.49267578 267.07714844 C-531.8481569 259.79897459 -525.99702537 252.71741862 -519.99902344 245.72851562 C-518.47434177 243.94687675 -516.95952698 242.15716433 -515.44580078 240.36621094 C-506.29819099 229.57242874 -506.29819099 229.57242874 -501.24513245 224.7328949 C-499.51392684 223.00071791 -497.92732366 221.1964596 -496.33618164 219.33520508 C-492.69710403 215.15092001 -488.86399707 211.20597095 -484.93798828 207.29199219 C-483.88260109 206.23516991 -483.88260109 206.23516991 -482.80589294 205.15699768 C-481.32893555 203.67936477 -479.85073461 202.20297387 -478.37133789 200.7277832 C-476.12743118 198.48923362 -473.88891499 196.24539371 -471.65087891 194.00097656 C-470.20523585 192.5559944 -468.75928258 191.11132252 -467.31298828 189.66699219 C-466.65440323 189.0063829 -465.99581818 188.34577362 -465.317276 187.66514587 C-460.89161678 183.26137007 -456.29764753 179.10961158 -451.55908203 175.04589844 C-450.46490025 174.09587468 -449.37107393 173.14544112 -448.27783203 172.19433594 C-417.62222543 145.7218292 -385.14990032 122.09475315 -350.55908203 101.04589844 C-349.68364746 100.51061523 -348.80821289 99.97533203 -347.90625 99.42382812 C-332.82660927 90.23226822 -317.34647054 81.95348773 -301.55908203 74.04589844 C-300.62814728 73.57866364 -300.62814728 73.57866364 -299.67840576 73.10198975 C-281.29619857 63.88649409 -262.75826698 55.45023527 -243.55908203 48.04589844 C-242.49367188 47.63033691 -241.42826172 47.21477539 -240.33056641 46.78662109 C-163.82702419 17.07257116 -82.07084248 1.05839747 0 0 Z " fill="#604CC3" transform="translate(769.55908203125,82.9541015625)"/>
<path d="M0 0 C1.21865307 -0.00295142 2.43730613 -0.00590285 3.69288808 -0.00894371 C7.0595779 -0.01608657 10.42621788 -0.01883661 13.7929116 -0.01966666 C17.46188265 -0.02164812 21.13084272 -0.02932851 24.79980719 -0.03623921 C32.06964399 -0.04901575 39.33947723 -0.05642518 46.60932262 -0.06213799 C55.32032636 -0.06921454 64.03131957 -0.08197189 72.74231656 -0.09468719 C94.79313034 -0.12649108 116.84395109 -0.14636564 138.8947801 -0.16397271 C144.86951854 -0.16874422 150.84425677 -0.17375225 156.818995 -0.17877793 C193.93065175 -0.20982444 231.04231034 -0.23643105 268.15397644 -0.25319672 C276.74625972 -0.25713369 285.33854297 -0.2611456 293.93082619 -0.2652216 C294.99826555 -0.26572326 296.06570492 -0.26622493 297.16549093 -0.2667418 C331.76952636 -0.28315762 366.37349106 -0.32161475 400.9774917 -0.3725087 C436.57438689 -0.42476729 472.17124441 -0.45751638 507.76817873 -0.46477425 C512.79914656 -0.46580277 517.83011432 -0.46703908 522.86108208 -0.46839428 C524.34619406 -0.46878134 524.34619406 -0.46878134 525.86130831 -0.46917621 C541.77069326 -0.47386437 557.67998468 -0.4987704 573.58933466 -0.53114571 C589.59054454 -0.5632324 605.59164946 -0.57313247 621.59288768 -0.56071376 C631.08902026 -0.55399407 640.58479139 -0.56381447 650.08086723 -0.59784076 C656.43712208 -0.6189464 662.79313396 -0.61792587 669.14939628 -0.59950735 C672.76258726 -0.58965007 676.37509295 -0.58882879 679.9882168 -0.61517017 C707.56891138 -0.80387792 731.7530095 4.35947213 753.49186134 22.1398077 C754.39291603 22.86554989 755.29397072 23.59129208 756.22233009 24.33902645 C777.8879224 42.82659111 788.77507532 69.07757253 791.27423859 96.94569492 C791.66268804 102.64708107 791.62180529 108.3442777 791.60538673 114.05655575 C791.60510397 115.41776687 791.60526433 116.77897814 791.60582924 118.14018917 C791.60611374 121.80059174 791.60027365 125.4609609 791.59325528 129.12135577 C791.58696344 132.9596834 791.58641336 136.79801197 791.58522987 140.63634396 C791.58213364 147.88917504 791.57394347 155.14199087 791.56388038 162.39481527 C791.55266596 170.6585144 791.54719542 178.9222143 791.54218495 187.18591917 C791.53175927 204.17055747 791.51419319 221.15518097 791.49186134 238.1398077 C790.39939551 238.14477292 790.39939551 238.14477292 789.28485966 238.14983845 C771.50425236 238.23131471 753.72372934 238.32348614 735.94323826 238.42733479 C727.34447352 238.47730294 718.74571757 238.52374665 710.14689064 238.5616827 C702.64585493 238.59478472 695.14489074 238.63471415 687.64393431 238.68259776 C683.67796821 238.70768322 679.71204845 238.72951576 675.74602509 238.74315166 C672.00069489 238.7561372 668.2555251 238.77836235 664.51028442 238.8071909 C662.50575192 238.8203542 660.50116449 238.82415597 658.49659157 238.82750607 C646.69546368 238.93441685 634.75114202 239.77787138 623.55436134 243.7648077 C622.43432716 244.15394344 622.43432716 244.15394344 621.29166603 244.55094051 C590.50904157 255.61811982 565.83708329 277.62980054 551.53775978 307.10660458 C539.48524214 333.44006476 537.45719431 364.89796858 547.15787697 392.30484676 C552.3119803 405.97849566 558.84672263 418.06711525 568.49186134 429.1398077 C569.20213478 429.97125301 569.91240822 430.80269833 570.64420509 431.65933895 C592.18440526 456.30375074 619.00266827 467.7752582 651.13762093 469.95907497 C662.13934171 470.5518682 673.16974565 470.50380017 684.18488455 470.54452467 C687.93777622 470.5604277 691.69059291 470.58712703 695.44342995 470.6125555 C702.51169552 470.65887236 709.57997598 470.6958402 716.64831316 470.72922838 C724.71159484 470.76778808 732.77480033 470.81710634 740.83801723 470.86721253 C757.38924343 470.96982963 773.94051242 471.05931237 790.49186134 471.1398077 C791.5251228 474.23959206 791.62257828 476.38190153 791.63230324 479.63191891 C791.64086845 481.34515095 791.64086845 481.34515095 791.6496067 483.09299374 C791.65072456 484.34747311 791.65184242 485.60195248 791.65299416 486.89444637 C791.65762366 488.22851861 791.6626485 489.56258952 791.66803932 490.8966589 C791.68116544 494.52553849 791.68761042 498.15439957 791.69204998 501.78329921 C791.69498454 504.05638199 791.6990904 506.32945976 791.70355415 508.60254002 C791.71723883 515.7306078 791.72689684 522.85866409 791.73075604 529.98674411 C791.73521861 538.18267047 791.75267798 546.37842855 791.78175664 554.57430381 C791.80349953 560.92615756 791.81346724 567.27796447 791.81479716 573.62985498 C791.8158376 577.41423091 791.82157893 581.19844889 791.83961678 584.98278522 C792.0029584 621.33331224 792.0029584 621.33331224 784.74186134 638.4523077 C784.39188087 639.2984161 784.04190041 640.1445245 783.68131447 641.01627254 C780.91660501 647.52183889 777.72765256 653.46084868 773.49186134 659.1398077 C772.88858009 659.96222958 772.28529884 660.78465145 771.66373634 661.6319952 C755.29340102 682.99328642 732.28932526 697.89038742 705.49186134 702.1398077 C696.49436825 702.95787151 687.44625045 702.81618477 678.42004782 702.76354139 C674.78011605 702.74796933 671.14026604 702.76184649 667.50033069 702.77176052 C661.1384452 702.78512515 654.77678593 702.78014809 648.41491318 702.76275158 C638.95447462 702.73695419 629.49419511 702.74007263 620.03373323 702.74879416 C604.11150827 702.76262442 588.18937843 702.7530214 572.26716805 702.72958851 C556.5020588 702.70640636 540.73699166 702.69278066 524.9718647 702.69207096 C523.98965506 702.69201751 523.00744543 702.69196406 521.99547186 702.691909 C518.00805592 702.69172038 514.02063999 702.69159882 510.03322405 702.69156667 C472.65946594 702.69122616 435.2857718 702.66419769 397.91203814 702.62337457 C364.72526109 702.58723967 331.53852121 702.56811081 298.35172462 702.56534481 C297.29619582 702.56525331 296.24066701 702.5651618 295.15315248 702.56506753 C291.95981861 702.56479109 288.76648474 702.5645196 285.57315087 702.5642485 C281.33145602 702.56388546 277.08976118 702.56351206 272.84806633 702.56313133 C271.801384 702.56304111 270.75470167 702.56295088 269.67630169 702.56285792 C236.95354129 702.55987474 204.23078777 702.54240742 171.5080339 702.52244372 C160.65824125 702.51583296 149.80844969 702.51014132 138.95865536 702.50725341 C137.98283144 702.50699223 137.00700753 702.50673106 136.0016132 702.50646197 C135.02784773 702.50620284 134.05408227 702.50594372 133.05080876 702.50567674 C114.28616158 702.50067662 95.52154183 702.48943537 76.7569097 702.46437644 C67.35736413 702.45199201 57.95785191 702.44492699 48.55829799 702.44571882 C42.27434182 702.44568093 35.9904212 702.43832693 29.70647904 702.42509216 C26.12999519 702.41775125 22.55358298 702.41344527 18.97709277 702.41796797 C-16.03581732 702.456962 -16.03581732 702.456962 -29.00813866 697.5148077 C-30.06049706 697.12567196 -30.06049706 697.12567196 -31.13411522 696.72867489 C-58.78686591 686.14275908 -80.91890801 665.78613544 -93.16658592 638.77408504 C-100.73239212 621.32645606 -102.80677627 605.26686526 -102.76210594 586.41556454 C-102.7644121 584.29788687 -102.76758967 582.18021001 -102.77156043 580.06253481 C-102.77989565 574.25959518 -102.77578891 568.45672149 -102.76958799 562.65378165 C-102.76505932 556.38921621 -102.77204933 550.12466204 -102.77754784 543.86009884 C-102.78592543 532.30274992 -102.78520197 520.74543034 -102.7797249 509.18808158 C-102.77468969 498.51042289 -102.7733823 487.83277189 -102.77577019 477.15511227 C-102.77592296 476.44626888 -102.77607573 475.73742549 -102.77623313 475.00710199 C-102.77685583 472.12952613 -102.77749263 469.25195027 -102.77815265 466.37437441 C-102.78426781 439.39189878 -102.77872823 412.4094365 -102.76795886 385.42696293 C-102.75846797 361.46551472 -102.75931724 337.50408776 -102.76888084 313.54263973 C-102.7795949 286.60886099 -102.78383409 259.67509403 -102.77765632 232.74131346 C-102.7770149 229.86904335 -102.77638922 226.99677325 -102.77577019 224.12450314 C-102.77561203 223.4173001 -102.77545388 222.71009706 -102.77529093 221.98146362 C-102.77301797 211.31168213 -102.77567284 200.64190918 -102.78072929 189.97212887 C-102.78645129 177.83760034 -102.78481847 165.70310238 -102.77416781 153.56857479 C-102.76891317 147.37790654 -102.76685088 141.18728143 -102.77346611 134.9966135 C-102.77943187 129.32798444 -102.77613999 123.65943844 -102.76551101 117.99081689 C-102.76327966 115.9418392 -102.7644073 113.89285447 -102.76926258 111.84388131 C-102.81160787 92.48665714 -102.81160787 92.48665714 -100.50813866 83.1398077 C-100.25934959 81.9229327 -100.01056053 80.7060577 -99.75423241 79.4523077 C-93.19390315 52.57714243 -76.39247363 27.74358349 -52.77376366 13.0616827 C-35.88744964 2.92989429 -19.53376991 -0.01594726 0 0 Z " fill="#FEFEFE" transform="translate(430.5081386566162,525.8601922988892)"/>
<path d="M0 0 C31.87329978 26.41860991 37.3132587 67.10220458 46.875 105.3125 C47.11583313 106.27465424 47.35666626 107.23680847 47.60479736 108.2281189 C48.29814978 111.00191379 48.98940873 113.77622001 49.6796875 116.55078125 C49.88458801 117.37160187 50.08948853 118.19242249 50.30059814 119.03811646 C51.61586642 124.3416066 52.83877658 129.66069215 54 135 C46.47235183 135.06943899 38.94473676 135.12278005 31.41684151 135.15543652 C27.92149691 135.17110825 24.42637104 135.19237331 20.93115234 135.22631836 C16.91501742 135.26507941 12.89911309 135.27969664 8.8828125 135.29296875 C6.99527756 135.31619453 6.99527756 135.31619453 5.0696106 135.33988953 C3.90855804 135.34011612 2.74750549 135.34034271 1.55126953 135.34057617 C0.01238571 135.35056892 0.01238571 135.35056892 -1.55758667 135.36076355 C-2.36358307 135.24171158 -3.16957947 135.12265961 -4 135 C-6.1457913 131.78131305 -6.55153396 129.82794835 -7.25 126.0625 C-8.65865684 119.14727552 -10.58610052 112.48711985 -12.66699219 105.74731445 C-14.44602089 99.95015358 -16.01971753 94.12967717 -17.5 88.25 C-22.97410499 66.26719712 -22.97410499 66.26719712 -36.5625 48.9375 C-50.66342581 40.98970545 -67.15929689 45.60702006 -82 49 C-84.34751238 49.52668331 -86.69517808 50.05268359 -89.04296875 50.578125 C-92.93960709 51.45313141 -96.83553749 52.33081197 -100.72924805 53.21875 C-109.59014986 55.23922059 -118.46245774 57.19913213 -127.34487915 59.12265015 C-138.45453201 61.52968871 -149.52973549 64.04599635 -160.57543945 66.73291016 C-168.72121863 68.70886972 -176.885814 70.59386099 -185.0625 72.4375 C-185.70899506 72.58331512 -186.35549011 72.72913025 -187.02157593 72.87936401 C-196.4516705 75.00316685 -205.8936195 77.06996724 -215.33984375 79.12063599 C-216.34724609 79.33935867 -216.34724609 79.33935867 -217.375 79.5625 C-218.04708496 79.70839569 -218.71916992 79.85429138 -219.41162109 80.00460815 C-229.16324969 82.1247765 -238.87701476 84.37254081 -248.57324219 86.73291016 C-256.73934668 88.71491085 -264.92654485 90.59428671 -273.125 92.4375 C-273.77642975 92.5839798 -274.4278595 92.73045959 -275.09902954 92.88137817 C-278.41440643 93.62644515 -281.73007374 94.37020995 -285.04589844 95.11328125 C-291.4486716 96.54844663 -297.84935454 97.99288001 -304.25 99.4375 C-305.5186792 99.72359131 -306.7873584 100.00968262 -308.09448242 100.30444336 C-314.93421444 101.84873297 -321.77144904 103.40327557 -328.60546875 104.97265625 C-331.54946523 105.64849825 -334.49347283 106.32429173 -337.4375 107 C-338.16761292 107.16762848 -338.89772583 107.33525696 -339.64996338 107.50796509 C-350.96793726 110.1041877 -362.303943 112.60702041 -373.65286255 115.06402588 C-382.08833135 116.89265907 -390.49290553 118.81487374 -398.875 120.875 C-409.48441592 123.46821365 -420.14069259 125.8328785 -430.81500244 128.1416626 C-432.66028588 128.54114869 -434.50515021 128.94257661 -436.34954834 129.34613037 C-438.97390356 129.91933991 -441.59993712 130.48417013 -444.2265625 131.046875 C-444.98845886 131.21436249 -445.75035522 131.38184998 -446.53533936 131.55441284 C-459.89412509 134.38261786 -472.88947893 135.29709916 -486.49414062 135.28710938 C-488.19300661 135.29315113 -489.89186964 135.30007973 -491.59072876 135.30781555 C-495.21963869 135.32258348 -498.84849477 135.33142321 -502.47743225 135.33552551 C-508.23985113 135.34231324 -514.0021566 135.36415522 -519.76452637 135.38806152 C-532.00965742 135.43679445 -544.25481265 135.46922505 -556.5 135.5 C-569.69877771 135.53322629 -582.89751034 135.56951499 -596.09621954 135.62413073 C-600.87488878 135.64344696 -605.65349875 135.65881394 -610.4322052 135.66447449 C-632.08517947 135.69104221 -653.53218204 135.79247556 -675 139 C-661.69704351 118.40006316 -636.99227981 110.54373388 -614.28173828 105.47070312 C-610.02099508 104.59174818 -605.72872306 103.89942338 -601.4375 103.1875 C-580.30451601 99.66916861 -559.49082641 94.3685978 -538.6541748 89.42547607 C-527.7936394 86.85100597 -516.90641539 84.44670857 -505.98364258 82.14819336 C-497.42584482 80.33641012 -488.92792627 78.32750779 -480.43139648 76.24951172 C-471.47034238 74.07425782 -462.46388495 72.15155424 -453.44140625 70.25 C-445.76223079 68.62082686 -438.12513189 66.86500041 -430.5 65 C-420.51777072 62.5584866 -410.49654352 60.36919468 -400.44140625 58.25 C-392.76223079 56.62082686 -385.12513189 54.86500041 -377.5 53 C-367.51777072 50.5584866 -357.49654352 48.36919468 -347.44140625 46.25 C-339.76223079 44.62082686 -332.12513189 42.86500041 -324.5 41 C-314.51777072 38.5584866 -304.49654352 36.36919468 -294.44140625 34.25 C-286.76223079 32.62082686 -279.12513189 30.86500041 -271.5 29 C-262.69611216 26.8466924 -253.86852195 24.86916945 -245 23 C-236.31922619 21.1699126 -227.6785018 19.23904249 -219.0625 17.125 C-208.60075484 14.56259226 -198.09346158 12.2561135 -187.5625 10 C-173.98220254 7.08797834 -160.43174231 4.08068707 -146.90869141 0.91162109 C-143.04434317 0.00825539 -139.17717313 -0.88273403 -135.30987549 -1.77337646 C-131.51088345 -2.64852435 -127.7124798 -3.52621112 -123.91412354 -4.40411377 C-122.05003248 -4.83449733 -120.18574192 -5.2640179 -118.32122803 -5.69256592 C-108.78955464 -7.88464929 -99.29672937 -10.15403196 -89.8515625 -12.6953125 C-83.37584372 -14.43018326 -76.97215977 -15.95356619 -70.3125 -16.8125 C-69.00490723 -16.98567749 -69.00490723 -16.98567749 -67.67089844 -17.16235352 C-43.33528155 -20.17200368 -19.79830286 -14.95806976 0 0 Z " fill="#FEFEFE" transform="translate(1071,351)"/>
<path d="M0 0 C0.67350949 -0.00742747 1.34701898 -0.01485494 2.04093784 -0.02250749 C3.92454021 -0.04331514 5.80805507 -0.07164986 7.69155216 -0.10045147 C14.85826683 0.25040347 20.00453692 3.69573306 25.35931587 8.20432472 C31.1044645 14.84409504 31.53923944 20.18998306 31.45062447 28.72727394 C31.45442116 29.88426796 31.45821785 31.04126198 31.46212959 32.23331642 C31.46952311 36.04814934 31.44816534 39.862216 31.42572212 43.67698097 C31.42333654 46.33585673 31.42233113 48.99470065 31.42294502 51.65357399 C31.42107524 57.22348421 31.40375894 62.79317579 31.37640572 68.36301613 C31.34498924 74.78356398 31.33440871 81.20387238 31.33587682 87.62449157 C31.33710208 93.82190355 31.32684651 100.01923839 31.3102932 106.21662712 C31.30394364 108.8439697 31.29999063 111.47131922 31.29850578 114.09866905 C31.2941514 117.77707378 31.27660302 121.45518312 31.25531197 125.13352394 C31.25621834 126.21225777 31.25712471 127.29099159 31.25805855 128.40241432 C31.18038462 137.61727555 30.52727791 147.22078544 23.90228462 154.24729347 C14.92196764 159.78834012 5.04521115 159.49668591 -5.17071342 159.46384621 C-6.78330264 159.46955823 -8.39588782 159.4765257 -10.00846672 159.48464394 C-14.36417359 159.5025038 -18.7196782 159.5014199 -23.0754106 159.49570155 C-26.72546023 159.49259762 -30.37547168 159.49871586 -34.02551585 159.5047403 C-42.64653886 159.51876196 -51.26746274 159.51724544 -59.88848686 159.50583839 C-68.74762017 159.49437443 -77.60645013 159.50840922 -86.46554345 159.53523487 C-94.1007574 159.557479 -101.73587674 159.56400928 -109.37112075 159.55815846 C-113.91828572 159.55480662 -118.46525659 159.5570841 -123.01239395 159.57440948 C-127.29471445 159.59001492 -131.57659055 159.58577453 -135.85889435 159.56710434 C-137.41839457 159.56345493 -138.97792872 159.56641848 -140.53739738 159.57699013 C-160.74727347 159.70338478 -178.7381924 153.71575651 -194.03521538 140.05979347 C-194.769981 139.41784035 -195.50474663 138.77588722 -196.26177788 138.11448097 C-206.31130171 128.75564607 -212.96139489 117.1119948 -217.03521538 104.05979347 C-217.35361382 103.05819191 -217.67201225 102.05659035 -218.00005913 101.02463722 C-223.29761531 81.71419049 -220.33974162 60.89618835 -211.22271538 43.30979347 C-201.13150261 25.79781611 -185.45906227 13.51424116 -166.59771538 6.68479347 C-165.97952934 6.4583213 -165.36134331 6.23184914 -164.72442436 5.99851418 C-162.51335419 5.25628411 -160.29065962 4.65559372 -158.03521538 4.05979347 C-156.61625969 3.68154175 -156.61625969 3.68154175 -155.16863823 3.29564857 C-141.29647371 0.16788943 -127.18298817 0.57758012 -113.04067111 0.55368257 C-109.26271399 0.54417398 -105.48486947 0.51794968 -101.70698357 0.49367714 C-94.56075888 0.4502475 -87.41455632 0.42157162 -80.26824051 0.39835376 C-72.18405145 0.37134103 -64.09998274 0.32732449 -56.01587856 0.28206503 C-43.39468052 0.21186428 -30.77346485 0.15094729 -18.15215874 0.10398293 C-16.94082268 0.09934532 -15.72948662 0.09470772 -14.48144341 0.08992958 C-12.17373678 0.08180601 -9.86601934 0.07626923 -7.55830002 0.07355118 C-5.03776508 0.06370845 -2.52003129 0.03912395 0 0 Z " fill="#FEFEFE" transform="translate(1231.0352153778076,799.94020652771)"/>
<path d="M0 0 C7.46879999 4.63580689 11.64544562 9.95452632 15.3125 17.8125 C17.20797349 26.60060437 16.2354448 34.07426667 12 42 C7.81350563 48.40287374 1.21516616 52.59494461 -6 55 C-15.50889951 55.75553118 -24.06757627 56.04095855 -32 50 C-38.33833565 44.36047505 -42.42679453 37.92091485 -43.4140625 29.4453125 C-43.7736896 20.03822462 -42.53110407 13.10241719 -36.203125 5.9765625 C-26.15880197 -3.54545574 -12.66499398 -6.45845986 0 0 Z " fill="#614DC3" transform="translate(1100,856)"/>
</svg>
